<svg width="187" height="60" viewBox="0 0 187 60" fill="none" xmlns="http://www.w3.org/2000/svg">
<path d="M17.577 18.738V22.985H11.811V40.5H6.51V22.985H0.744V18.738H17.577ZM37.3184 23.202V40.5H32.0174V38.144C31.4801 38.9087 30.7464 39.5287 29.8164 40.004C28.9071 40.4587 27.8944 40.686 26.7784 40.686C25.4558 40.686 24.2881 40.3967 23.2754 39.818C22.2628 39.2187 21.4774 38.361 20.9194 37.245C20.3614 36.129 20.0824 34.8167 20.0824 33.308V23.202H25.3524V32.595C25.3524 33.7523 25.6521 34.6513 26.2514 35.292C26.8508 35.9327 27.6568 36.253 28.6694 36.253C29.7028 36.253 30.5191 35.9327 31.1184 35.292C31.7178 34.6513 32.0174 33.7523 32.0174 32.595V23.202H37.3184ZM50.7671 36.005V40.5H48.0701C46.1481 40.5 44.6498 40.035 43.5751 39.105C42.5004 38.1543 41.9631 36.6147 41.9631 34.486V27.604H39.8551V23.202H41.9631V18.986H47.2641V23.202H50.7361V27.604H47.2641V34.548C47.2641 35.0647 47.3881 35.4367 47.6361 35.664C47.8841 35.8913 48.2974 36.005 48.8761 36.005H50.7671ZM61.5939 40.748C59.8992 40.748 58.3699 40.3863 57.0059 39.663C55.6625 38.9397 54.5982 37.9063 53.8129 36.563C53.0482 35.2197 52.6659 33.649 52.6659 31.851C52.6659 30.0737 53.0585 28.5133 53.8439 27.17C54.6292 25.806 55.7039 24.7623 57.0679 24.039C58.4319 23.3157 59.9612 22.954 61.6559 22.954C63.3505 22.954 64.8799 23.3157 66.2439 24.039C67.6079 24.7623 68.6825 25.806 69.4679 27.17C70.2532 28.5133 70.6459 30.0737 70.6459 31.851C70.6459 33.6283 70.2429 35.199 69.4369 36.563C68.6515 37.9063 67.5665 38.9397 66.1819 39.663C64.8179 40.3863 63.2885 40.748 61.5939 40.748ZM61.5939 36.16C62.6065 36.16 63.4642 35.788 64.1669 35.044C64.8902 34.3 65.2519 33.2357 65.2519 31.851C65.2519 30.4663 64.9005 29.402 64.1979 28.658C63.5159 27.914 62.6685 27.542 61.6559 27.542C60.6225 27.542 59.7649 27.914 59.0829 28.658C58.4009 29.3813 58.0599 30.4457 58.0599 31.851C58.0599 33.2357 58.3905 34.3 59.0519 35.044C59.7339 35.788 60.5812 36.16 61.5939 36.16ZM78.7591 26.085C79.3791 25.1343 80.1541 24.3903 81.0841 23.853C82.0141 23.295 83.0475 23.016 84.1841 23.016V28.627H82.7271C81.4045 28.627 80.4125 28.9163 79.7511 29.495C79.0898 30.053 78.7591 31.045 78.7591 32.471V40.5H73.4581V23.202H78.7591V26.085Z" fill="#14B8A6"/>
<path d="M103.303 25.744C103.303 27.0047 103.014 28.162 102.435 29.216C101.856 30.2493 100.968 31.0863 99.7689 31.727C98.5702 32.3677 97.0822 32.688 95.3049 32.688H92.0189V40.5H86.7179V18.738H95.3049C97.0409 18.738 98.5082 19.0377 99.7069 19.637C100.906 20.2363 101.805 21.063 102.404 22.117C103.003 23.171 103.303 24.38 103.303 25.744ZM94.9019 28.472C95.9146 28.472 96.6689 28.2343 97.1649 27.759C97.6609 27.2837 97.9089 26.612 97.9089 25.744C97.9089 24.876 97.6609 24.2043 97.1649 23.729C96.6689 23.2537 95.9146 23.016 94.9019 23.016H92.0189V28.472H94.9019ZM105.009 31.82C105.009 30.0427 105.339 28.4823 106.001 27.139C106.683 25.7957 107.602 24.7623 108.76 24.039C109.917 23.3157 111.209 22.954 112.635 22.954C113.854 22.954 114.918 23.202 115.828 23.698C116.758 24.194 117.471 24.845 117.967 25.651V23.202H123.268V40.5H117.967V38.051C117.45 38.857 116.727 39.508 115.797 40.004C114.887 40.5 113.823 40.748 112.604 40.748C111.198 40.748 109.917 40.3863 108.76 39.663C107.602 38.919 106.683 37.8753 106.001 36.532C105.339 35.168 105.009 33.5973 105.009 31.82ZM117.967 31.851C117.967 30.5283 117.595 29.4847 116.851 28.72C116.127 27.9553 115.239 27.573 114.185 27.573C113.131 27.573 112.232 27.9553 111.488 28.72C110.764 29.464 110.403 30.4973 110.403 31.82C110.403 33.1427 110.764 34.1967 111.488 34.982C112.232 35.7467 113.131 36.129 114.185 36.129C115.239 36.129 116.127 35.7467 116.851 34.982C117.595 34.2173 117.967 33.1737 117.967 31.851ZM132.404 17.56V40.5H127.103V17.56H132.404Z" fill="#0A0F16"/>
<rect x="147" y="10" width="40" height="10.5263" fill="#14B8A6"/>
<rect x="147" y="24.7368" width="21.8182" height="10.5263" fill="#0A0F16"/>
<rect x="147" y="39.4737" width="10.9091" height="10.5263" fill="#14B8A6"/>
</svg>
